<?xml version="1.0" encoding="utf-8"?>
<!-- Generator: Adobe Illustrator 16.1.0, SVG Export Plug-In . SVG Version: 6.00 Build 0)  -->
<!DOCTYPE svg PUBLIC "-//W3C//DTD SVG 1.1//EN" "http://www.w3.org/Graphics/SVG/1.1/DTD/svg11.dtd">
<svg version="1.1" id="Layer_1" xmlns="http://www.w3.org/2000/svg" xmlns:xlink="http://www.w3.org/1999/xlink" x="0px" y="0px"
	 width="2078px" height="784px" viewBox="0 0 2078 784" enable-background="new 0 0 2078 784" xml:space="preserve">
<g>
	<path fill-rule="evenodd" clip-rule="evenodd" fill="#F397A5" d="M432.83,189.174c321.34-160.827,417.488,14.634,339.275,210.396
		c-50.668,124.159-185.372,375.631-334.871,375.631C265.182,765.94,67.78,447.022,71.502,276.099c0.012-0.4,0.016-0.798,0.021-1.196
		C74.304,136.973,181.828,51.787,432.83,189.174L432.83,189.174z M435.559,575.179c-1.901,0.131-3.807,0.158-5.712,0.087
		c-44.105-1.647-95.253-54.392-130.105-111.933c-30.408-50.205-52.51-105.135-38.639-141.192c0.824-2.125,1.244-4.365,2.028-6.482
		c21.952-68.859,143.596-71.622,185.65-72.737c95.007-3.074,173.082,46.448,162.066,102.03
		C597.213,405.353,540.484,565.446,435.559,575.179L435.559,575.179z"/>
	<path fill-rule="evenodd" clip-rule="evenodd" fill="#DC7D86" d="M661.356,126.629c62.322,3.729,102.446,33.052,122.116,77.116
		c-9.11,2.945-18.831,4.541-28.923,4.541C706.82,208.286,667.401,172.71,661.356,126.629L661.356,126.629z"/>
	
		<path fill-rule="evenodd" clip-rule="evenodd" fill="#646265" stroke="#646265" stroke-width="0.216" stroke-miterlimit="22.9256" d="
		M71.484,279.28C72.07,138.876,179.447,50.072,432.77,188.56l-0.875,0.398c-46.632,17.808-92.956,46.856-136.284,78.433
		c-48.834,44.979-42.588,86.656-20.926,138.243c31.208,65.91,60.773,104.835,102.446,145.957
		c16.965,13.979,33.046,23.861,57.667,23.734c16.648-0.855,34.841-6.82,53.037-19.329
		c79.128-63.245,109.295-157.678,123.629-223.164c6.151,114.519-71.765,432.577-253.334,323.134
		C294.501,617.973,142.147,521.9,71.484,279.28L71.484,279.28z"/>
	
		<path fill-rule="evenodd" clip-rule="evenodd" fill="#434344" stroke="#434344" stroke-width="0.216" stroke-miterlimit="22.9256" d="
		M93.128,185.399c22.694-40.855,63.755-66.583,125.631-66.225c-9.191,41.725-46.378,72.943-90.864,72.943
		C115.603,192.117,103.871,189.73,93.128,185.399L93.128,185.399z"/>
	<path fill-rule="evenodd" clip-rule="evenodd" fill="#F397A5" d="M754.55,28.1c47.599,0,86.182,38.585,86.182,86.183
		c0,47.601-38.583,86.184-86.182,86.184c-47.595,0-86.183-38.583-86.183-86.184C668.367,66.686,706.955,28.1,754.55,28.1
		L754.55,28.1z"/>
	<path fill-rule="evenodd" clip-rule="evenodd" fill="#646265" d="M424.016,339.867l-75.452,25.225
		c-24.213,8.094-37.399,34.525-29.307,58.735l2.178,6.504c8.092,24.213,34.524,37.399,58.733,29.303l75.595-25.271
		C432.924,405.785,423.89,378.852,424.016,339.867L424.016,339.867z"/>
	<path fill-rule="evenodd" clip-rule="evenodd" fill="#F397A5" d="M564.547,349.056l-2.175-6.504
		c-8.096-24.209-34.523-37.397-58.737-29.303l-74.517,24.912c-2.559,37.114,11.221,68.345,30.86,94.792l75.262-25.16
		C559.453,399.696,572.639,373.267,564.547,349.056L564.547,349.056z"/>
	<path fill="#F397A5" d="M1058.485,325.674c-40.208,59.076-121.439,178.869-172.31,178.869c-14.77,0-22.153-9.843-22.153-32
		c0-79.588,91.898-232.203,169.025-232.203c29.537,0,40.204,21.333,40.204,45.949c0,9.025-1.641,19.692-4.1,28.719
		c23.793,0,40.203-8.205,40.203-35.284c0-36.922-32-61.538-74.664-61.538c-106.668,0-227.287,154.257-227.287,251.897
		c0,45.951,26.261,68.104,60.721,68.104c40.204,0,76.304-32.001,123.898-95.182c-1.644,9.027-2.464,17.23-2.464,23.797
		c0,28.717,18.87,57.435,59.078,57.435c58.258,0,127.998-60.718,162.462-149.332l-8.207-8.207
		c-49.23,86.975-101.741,129.642-131.282,129.642c-19.689,0-27.896-19.693-27.896-36.104c0-39.384,47.591-95.178,47.591-114.05
		C1091.306,333.877,1068.332,327.314,1058.485,325.674L1058.485,325.674z M1399.816,517.674
		c10.667-22.154,22.153-50.051,39.388-76.308c50.87-77.948,80.407-122.257,107.484-122.257c12.307,0,23.793,8.205,23.793,29.539
		c0,31.999-24.613,76.308-24.613,116.511c0,32.82,16.41,59.897,54.974,59.897c65.642,0,115.691-77.947,141.949-146.872
		l-9.848-11.486c-25.433,55.798-64.82,129.642-109.947,129.642c-18.87,0-24.617-13.127-24.617-27.896
		c0-34.461,30.36-93.538,30.36-137.027c0-27.897-12.307-52.513-46.771-52.513c-55.794,0-101.741,64.001-136.201,126.358
		c9.022-22.153,25.433-73.846,25.433-115.691c0-33.64-10.667-62.359-44.307-62.359c-59.078,0-128.822,86.154-173.13,155.897
		c12.311-41.024,21.334-78.768,21.334-93.538c0-13.128-7.383-21.333-22.153-21.333c-15.591,0-31.177,9.847-37.744,17.232
		c-0.82,72.204-56.614,206.768-56.614,219.074c0,8.207,28.717,17.234,44.308,17.234c40.208-110.772,138.665-240.412,186.256-240.412
		c14.771,0,20.514,12.309,20.514,31.179c0,57.438-51.69,173.949-51.69,188.72C1357.973,512.75,1386.689,517.674,1399.816,517.674
		L1399.816,517.674z M1981.561,276.442c-6.563-1.64-12.311-2.462-17.229-2.462c-27.077,0-38.568,26.257-41.848,41.848
		c-2.464,13.126-4.924,25.435-8.207,37.744c-32.82,54.154-77.948,105.024-109.128,105.024c-22.154,0-29.537-13.126-29.537-32.82
		c0-44.307,35.28-132.923,54.154-160.82c0-9.847-29.537-18.872-36.104-18.872c-23.793,0-72.204,118.153-72.204,178.873
		c0,45.946,33.641,66.46,65.641,66.46c44.308,0,84.512-46.771,119.795-104.204c-14.77,59.897-30.36,109.948-45.946,150.151
		c-82.875,41.848-159.183,78.771-159.183,148.516c0,28.719,23.797,43.485,51.694,43.485c56.613,0,112.411-95.999,155.075-201.023
		c60.717-27.897,130.461-74.668,155.078-153.436l-10.666-8.207c-31.181,75.487-84.515,119.795-135.386,139.488
		C1956.124,406.905,1981.561,303.519,1981.561,276.442L1981.561,276.442z M1749.354,703.109c-16.411,0-22.154-15.59-22.154-24.617
		c0-54.154,57.438-85.331,125.539-121.435C1808.432,665.365,1765.765,703.109,1749.354,703.109L1749.354,703.109z"/>
	<path fill-rule="evenodd" clip-rule="evenodd" fill="#646265" d="M127.896,12.89c47.599,0,86.183,38.585,86.183,86.182
		c0,47.601-38.583,86.185-86.183,86.185c-47.599,0-86.182-38.583-86.182-86.185C41.713,51.476,80.297,12.89,127.896,12.89
		L127.896,12.89z"/>
</g>
<g>
	<path fill="#646265" d="M812.969,695l13.48-94.149h1.529l38.274,77.252l37.906-77.252h1.508L919.215,695h-9.227l-9.303-67.332
		L867.397,695h-2.405l-33.686-67.844L822.057,695H812.969z"/>
	<path fill="#646265" d="M1005.62,625.364V695h-8.833v-11.969c-3.755,4.566-7.968,8.001-12.641,10.305s-9.783,3.456-15.329,3.456
		c-9.856,0-18.273-3.573-25.25-10.721c-6.977-7.146-10.464-15.841-10.464-26.081c0-10.027,3.52-18.604,10.561-25.729
		s15.51-10.689,25.409-10.689c5.718,0,10.891,1.217,15.521,3.648c4.629,2.433,8.694,6.08,12.193,10.945v-12.801H1005.62z
		 M969.81,632.212c-4.986,0-9.59,1.227-13.809,3.677c-4.22,2.451-7.576,5.894-10.069,10.325c-2.493,4.433-3.739,9.121-3.739,14.064
		c0,4.902,1.257,9.59,3.771,14.064c2.514,4.476,5.893,7.959,10.133,10.452c4.24,2.494,8.791,3.74,13.65,3.74
		c4.901,0,9.546-1.235,13.937-3.708c4.39-2.472,7.767-5.817,10.133-10.036c2.365-4.22,3.548-8.972,3.548-14.257
		c0-8.055-2.653-14.789-7.959-20.202C984.098,634.919,977.566,632.212,969.81,632.212z"/>
	<path fill="#646265" d="M1025.781,625.364h8.961v12.48c3.584-4.778,7.553-8.353,11.904-10.721s9.088-3.553,14.209-3.553
		c5.205,0,9.824,1.323,13.857,3.969c4.031,2.646,7.008,6.208,8.928,10.688s2.881,11.457,2.881,20.93V695h-8.961v-33.218
		c0-8.021-0.332-13.377-0.996-16.065c-1.039-4.608-3.031-8.074-5.975-10.4c-2.945-2.325-6.785-3.488-11.521-3.488
		c-5.422,0-10.277,1.792-14.564,5.376c-4.289,3.585-7.117,8.022-8.482,13.313c-0.854,3.456-1.28,9.771-1.28,18.945V695h-8.961
		V625.364z"/>
	<path fill="#646265" d="M1108.826,596.69c2.039,0,3.781,0.726,5.227,2.176c1.443,1.451,2.166,3.2,2.166,5.248
		c0,2.007-0.723,3.734-2.166,5.185c-1.445,1.451-3.188,2.176-5.227,2.176c-1.996,0-3.719-0.725-5.162-2.176
		c-1.443-1.45-2.166-3.178-2.166-5.185c0-2.048,0.723-3.797,2.166-5.248C1105.107,597.416,1106.83,596.69,1108.826,596.69z
		 M1104.379,625.364h8.959V695h-8.959V625.364z"/>
	<path fill="#646265" d="M1132.092,625.364h8.961v12.801c3.537-4.865,7.607-8.513,12.213-10.945
		c4.604-2.432,9.738-3.648,15.408-3.648c9.889,0,18.35,3.563,25.383,10.689s10.551,15.702,10.551,25.729
		c0,10.24-3.484,18.935-10.453,26.081c-6.971,7.147-15.377,10.721-25.225,10.721c-5.543,0-10.635-1.152-15.281-3.456
		s-8.846-5.738-12.596-10.305v37.442h-8.961V625.364z M1167.934,632.212c-7.748,0-14.271,2.707-19.572,8.12
		s-7.949,12.147-7.949,20.202c0,5.285,1.182,10.037,3.545,14.257c2.361,4.219,5.746,7.564,10.152,10.036
		c4.406,2.473,9.057,3.708,13.953,3.708c4.811,0,9.332-1.246,13.568-3.74c4.236-2.493,7.609-5.977,10.121-10.452
		c2.512-4.475,3.768-9.162,3.768-14.064c0-4.943-1.246-9.632-3.736-14.064c-2.49-4.432-5.842-7.874-10.057-10.325
		C1177.512,633.438,1172.914,632.212,1167.934,632.212z"/>
	<path fill="#646265" d="M1220.225,625.364h8.961v32.514c0,7.937,0.426,13.398,1.281,16.385c1.283,4.268,3.729,7.639,7.34,10.112
		c3.609,2.476,7.916,3.713,12.916,3.713s9.24-1.205,12.723-3.616c3.482-2.41,5.887-5.579,7.213-9.505
		c0.896-2.688,1.346-8.385,1.346-17.089v-32.514h9.152v34.178c0,9.601-1.119,16.833-3.359,21.697s-5.611,8.673-10.113,11.425
		s-10.145,4.128-16.93,4.128c-6.783,0-12.447-1.376-16.992-4.128s-7.938-6.593-10.178-11.521c-2.24-4.929-3.359-12.342-3.359-22.242
		V625.364z"/>
	<path fill="#646265" d="M1299.717,598.482h8.961V695h-8.961V598.482z"/>
	<path fill="#646265" d="M1396.684,625.364V695h-8.834v-11.969c-3.754,4.566-7.969,8.001-12.641,10.305s-9.781,3.456-15.328,3.456
		c-9.857,0-18.273-3.573-25.25-10.721c-6.977-7.146-10.465-15.841-10.465-26.081c0-10.027,3.52-18.604,10.561-25.729
		s15.51-10.689,25.41-10.689c5.717,0,10.891,1.217,15.521,3.648c4.629,2.433,8.693,6.08,12.191,10.945v-12.801H1396.684z
		 M1360.873,632.212c-4.986,0-9.59,1.227-13.809,3.677c-4.221,2.451-7.578,5.894-10.07,10.325c-2.494,4.433-3.74,9.121-3.74,14.064
		c0,4.902,1.258,9.59,3.771,14.064c2.516,4.476,5.893,7.959,10.133,10.452c4.24,2.494,8.791,3.74,13.65,3.74
		c4.9,0,9.547-1.235,13.938-3.708c4.389-2.472,7.766-5.817,10.133-10.036c2.363-4.22,3.547-8.972,3.547-14.257
		c0-8.055-2.652-14.789-7.959-20.202S1368.629,632.212,1360.873,632.212z"/>
	<path fill="#646265" d="M1484.432,639.829l-7.104,4.416c-6.139-8.149-14.514-12.225-25.125-12.225
		c-8.482,0-15.525,2.728-21.129,8.184c-5.604,5.455-8.406,12.082-8.406,19.882c0,5.072,1.289,9.847,3.867,14.321
		s6.117,7.948,10.613,10.42c4.496,2.473,9.535,3.708,15.119,3.708c10.229,0,18.582-4.074,25.061-12.225l7.104,4.673
		c-3.328,5.012-7.799,8.9-13.408,11.663c-5.611,2.764-12.002,4.146-19.17,4.146c-11.008,0-20.141-3.498-27.395-10.496
		s-10.879-15.511-10.879-25.538c0-6.741,1.695-13.003,5.088-18.785c3.393-5.781,8.053-10.294,13.984-13.537
		c5.93-3.242,12.566-4.864,19.906-4.864c4.607,0,9.055,0.704,13.344,2.112s7.926,3.243,10.912,5.505
		S1482.34,636.33,1484.432,639.829z M1447.885,695h5.633l-1.088,7.616c0.98-0.128,1.793-0.191,2.432-0.191
		c2.09,0,3.84,0.649,5.248,1.952c1.408,1.301,2.113,2.933,2.113,4.896c0,2.816-1.281,5.206-3.84,7.169
		c-2.561,1.962-6.168,2.944-10.818,2.944c-3.797,0-7.359-0.641-10.688-1.92l1.408-4.417c2.73,0.854,5.289,1.28,7.68,1.28
		c3.201,0,5.441-0.395,6.721-1.184c1.279-0.79,1.92-1.782,1.92-2.977c0-0.726-0.352-1.366-1.057-1.92
		c-0.703-0.556-1.674-0.832-2.912-0.832c-1.023,0-2.518,0.191-4.479,0.576L1447.885,695z"/>
	<path fill="#646265" d="M1571.029,625.364V695h-8.834v-11.969c-3.754,4.566-7.969,8.001-12.641,10.305s-9.781,3.456-15.328,3.456
		c-9.857,0-18.273-3.573-25.25-10.721c-6.977-7.146-10.465-15.841-10.465-26.081c0-10.027,3.52-18.604,10.561-25.729
		s15.51-10.689,25.41-10.689c5.717,0,10.891,1.217,15.521,3.648c4.629,2.433,8.693,6.08,12.191,10.945v-12.801H1571.029z
		 M1535.219,632.212c-4.986,0-9.59,1.227-13.809,3.677c-4.221,2.451-7.578,5.894-10.07,10.325c-2.494,4.433-3.74,9.121-3.74,14.064
		c0,4.902,1.258,9.59,3.771,14.064c2.516,4.476,5.893,7.959,10.133,10.452c4.24,2.494,8.791,3.74,13.65,3.74
		c4.9,0,9.547-1.235,13.938-3.708c4.389-2.472,7.766-5.817,10.133-10.036c2.363-4.22,3.547-8.972,3.547-14.257
		c0-8.055-2.652-14.789-7.959-20.202S1542.975,632.212,1535.219,632.212z M1555.348,599.442l4.48,6.208
		c-3.072,2.244-5.664,3.756-7.777,4.531c-2.111,0.777-4.342,1.165-6.688,1.165c-3.072,0-6.23-0.789-9.473-2.368
		c-2.775-1.365-4.545-2.154-5.313-2.368c-1.023-0.298-2.135-0.447-3.328-0.447c-1.494,0-2.912,0.267-4.256,0.8
		c-1.346,0.534-3.297,1.739-5.857,3.616l-4.225-6.528c3.883-4.182,8.684-6.272,14.402-6.272c2.729,0,5.994,0.875,9.791,2.625
		c3.627,1.706,6.486,2.56,8.578,2.56C1548.029,602.963,1551.252,601.789,1555.348,599.442z"/>
	<path fill="#646265" d="M1624.15,623.571c10.729,0,19.619,3.884,26.674,11.649c6.41,7.083,9.617,15.468,9.617,25.153
		c0,9.729-3.389,18.231-10.162,25.506c-6.775,7.275-15.486,10.912-26.129,10.912c-10.686,0-19.416-3.637-26.191-10.912
		c-6.775-7.274-10.162-15.777-10.162-25.506c0-9.643,3.205-18.006,9.617-25.09C1604.467,627.476,1613.379,623.571,1624.15,623.571z
		 M1624.119,632.34c-7.451,0-13.854,2.753-19.205,8.257s-8.029,12.161-8.029,19.969c0,5.036,1.221,9.729,3.662,14.081
		c2.439,4.353,5.736,7.713,9.891,10.081s8.715,3.552,13.682,3.552s9.527-1.184,13.682-3.552c4.152-2.368,7.449-5.729,9.891-10.081
		c2.439-4.352,3.662-9.045,3.662-14.081c0-7.808-2.688-14.465-8.063-19.969C1637.918,635.093,1631.527,632.34,1624.119,632.34z"/>
</g>
</svg>
