<?xml version="1.0" encoding="utf-8"?>
<!-- Generator: Adobe Illustrator 17.1.0, SVG Export Plug-In . SVG Version: 6.00 Build 0)  -->
<!DOCTYPE svg PUBLIC "-//W3C//DTD SVG 1.1//EN" "http://www.w3.org/Graphics/SVG/1.1/DTD/svg11.dtd">
<svg version="1.1" id="Layer_1" xmlns="http://www.w3.org/2000/svg" xmlns:xlink="http://www.w3.org/1999/xlink" x="0px" y="0px"
	 viewBox="0 0 2078 784" enable-background="new 0 0 2078 784" xml:space="preserve">
<g>
	<path fill-rule="evenodd" clip-rule="evenodd" fill="#FFFFFF" d="M432.8,189.2c321.3-160.8,417.5,14.6,339.3,210.4
		c-50.7,124.2-185.4,375.6-334.9,375.6C265.2,765.9,67.8,447,71.5,276.1c0-0.4,0-0.8,0-1.2C74.3,137,181.8,51.8,432.8,189.2
		L432.8,189.2z M435.6,575.2c-1.9,0.1-3.8,0.2-5.7,0.1c-44.1-1.6-95.3-54.4-130.1-111.9c-30.4-50.2-52.5-105.1-38.6-141.2
		c0.8-2.1,1.2-4.4,2-6.5c22-68.9,143.6-71.6,185.6-72.7c95-3.1,173.1,46.4,162.1,102C597.2,405.4,540.5,565.4,435.6,575.2
		L435.6,575.2z"/>
	<path fill-rule="evenodd" clip-rule="evenodd" fill="#FFFFFF" d="M661.4,126.6c62.3,3.7,102.4,33.1,122.1,77.1
		c-9.1,2.9-18.8,4.5-28.9,4.5C706.8,208.3,667.4,172.7,661.4,126.6L661.4,126.6z"/>
	
		<path fill-rule="evenodd" clip-rule="evenodd" fill="#FFFFFF" stroke="#646265" stroke-width="0.216" stroke-miterlimit="22.9256" d="
		M71.5,279.3c0.6-140.4,108-229.2,361.3-90.7l-0.9,0.4c-46.6,17.8-93,46.9-136.3,78.4c-48.8,45-42.6,86.7-20.9,138.2
		c31.2,65.9,60.8,104.8,102.4,146c17,14,33,23.9,57.7,23.7c16.6-0.9,34.8-6.8,53-19.3c79.1-63.2,109.3-157.7,123.6-223.2
		c6.2,114.5-71.8,432.6-253.3,323.1C294.5,618,142.1,521.9,71.5,279.3L71.5,279.3z"/>
	
		<path fill-rule="evenodd" clip-rule="evenodd" fill="#FFFFFF" stroke="#434344" stroke-width="0.216" stroke-miterlimit="22.9256" d="
		M93.1,185.4c22.7-40.9,63.8-66.6,125.6-66.2c-9.2,41.7-46.4,72.9-90.9,72.9C115.6,192.1,103.9,189.7,93.1,185.4L93.1,185.4z"/>
	<path fill-rule="evenodd" clip-rule="evenodd" fill="#FFFFFF" d="M754.5,28.1c47.6,0,86.2,38.6,86.2,86.2
		c0,47.6-38.6,86.2-86.2,86.2c-47.6,0-86.2-38.6-86.2-86.2C668.4,66.7,707,28.1,754.5,28.1L754.5,28.1z"/>
	<path fill-rule="evenodd" clip-rule="evenodd" fill="#FFFFFF" d="M424,339.9l-75.5,25.2c-24.2,8.1-37.4,34.5-29.3,58.7l2.2,6.5
		c8.1,24.2,34.5,37.4,58.7,29.3l75.6-25.3C432.9,405.8,423.9,378.9,424,339.9L424,339.9z"/>
	<path fill-rule="evenodd" clip-rule="evenodd" fill="#FFFFFF" d="M564.5,349.1l-2.2-6.5c-8.1-24.2-34.5-37.4-58.7-29.3l-74.5,24.9
		c-2.6,37.1,11.2,68.3,30.9,94.8l75.3-25.2C559.5,399.7,572.6,373.3,564.5,349.1L564.5,349.1z"/>
	<path fill="#FFFFFF" d="M1058.5,325.7c-40.2,59.1-121.4,178.9-172.3,178.9c-14.8,0-22.2-9.8-22.2-32c0-79.6,91.9-232.2,169-232.2
		c29.5,0,40.2,21.3,40.2,45.9c0,9-1.6,19.7-4.1,28.7c23.8,0,40.2-8.2,40.2-35.3c0-36.9-32-61.5-74.7-61.5
		c-106.7,0-227.3,154.3-227.3,251.9c0,46,26.3,68.1,60.7,68.1c40.2,0,76.3-32,123.9-95.2c-1.6,9-2.5,17.2-2.5,23.8
		c0,28.7,18.9,57.4,59.1,57.4c58.3,0,128-60.7,162.5-149.3l-8.2-8.2c-49.2,87-101.7,129.6-131.3,129.6c-19.7,0-27.9-19.7-27.9-36.1
		c0-39.4,47.6-95.2,47.6-114.1C1091.3,333.9,1068.3,327.3,1058.5,325.7L1058.5,325.7z M1399.8,517.7c10.7-22.2,22.2-50.1,39.4-76.3
		c50.9-77.9,80.4-122.3,107.5-122.3c12.3,0,23.8,8.2,23.8,29.5c0,32-24.6,76.3-24.6,116.5c0,32.8,16.4,59.9,55,59.9
		c65.6,0,115.7-77.9,141.9-146.9l-9.8-11.5c-25.4,55.8-64.8,129.6-109.9,129.6c-18.9,0-24.6-13.1-24.6-27.9
		c0-34.5,30.4-93.5,30.4-137c0-27.9-12.3-52.5-46.8-52.5c-55.8,0-101.7,64-136.2,126.4c9-22.2,25.4-73.8,25.4-115.7
		c0-33.6-10.7-62.4-44.3-62.4c-59.1,0-128.8,86.2-173.1,155.9c12.3-41,21.3-78.8,21.3-93.5c0-13.1-7.4-21.3-22.2-21.3
		c-15.6,0-31.2,9.8-37.7,17.2c-0.8,72.2-56.6,206.8-56.6,219.1c0,8.2,28.7,17.2,44.3,17.2c40.2-110.8,138.7-240.4,186.3-240.4
		c14.8,0,20.5,12.3,20.5,31.2c0,57.4-51.7,173.9-51.7,188.7C1358,512.8,1386.7,517.7,1399.8,517.7L1399.8,517.7z M1981.6,276.4
		c-6.6-1.6-12.3-2.5-17.2-2.5c-27.1,0-38.6,26.3-41.8,41.8c-2.5,13.1-4.9,25.4-8.2,37.7c-32.8,54.2-77.9,105-109.1,105
		c-22.2,0-29.5-13.1-29.5-32.8c0-44.3,35.3-132.9,54.2-160.8c0-9.8-29.5-18.9-36.1-18.9c-23.8,0-72.2,118.2-72.2,178.9
		c0,45.9,33.6,66.5,65.6,66.5c44.3,0,84.5-46.8,119.8-104.2c-14.8,59.9-30.4,109.9-45.9,150.2c-82.9,41.8-159.2,78.8-159.2,148.5
		c0,28.7,23.8,43.5,51.7,43.5c56.6,0,112.4-96,155.1-201c60.7-27.9,130.5-74.7,155.1-153.4l-10.7-8.2
		c-31.2,75.5-84.5,119.8-135.4,139.5C1956.1,406.9,1981.6,303.5,1981.6,276.4L1981.6,276.4z M1749.4,703.1
		c-16.4,0-22.2-15.6-22.2-24.6c0-54.2,57.4-85.3,125.5-121.4C1808.4,665.4,1765.8,703.1,1749.4,703.1L1749.4,703.1z"/>
	<path fill-rule="evenodd" clip-rule="evenodd" fill="#FFFFFF" d="M127.9,12.9c47.6,0,86.2,38.6,86.2,86.2
		c0,47.6-38.6,86.2-86.2,86.2c-47.6,0-86.2-38.6-86.2-86.2C41.7,51.5,80.3,12.9,127.9,12.9L127.9,12.9z"/>
</g>
<g>
	<path fill="#FFFFFF" d="M813,695l13.5-94.1h1.5l38.3,77.3l37.9-77.3h1.5l13.5,94.1H910l-9.3-67.3L867.4,695H865l-33.7-67.8
		l-9.2,67.8H813z"/>
	<path fill="#FFFFFF" d="M1005.6,625.4V695h-8.8v-12c-3.8,4.6-8,8-12.6,10.3c-4.7,2.3-9.8,3.5-15.3,3.5c-9.9,0-18.3-3.6-25.2-10.7
		c-7-7.1-10.5-15.8-10.5-26.1c0-10,3.5-18.6,10.6-25.7c7-7.1,15.5-10.7,25.4-10.7c5.7,0,10.9,1.2,15.5,3.6
		c4.6,2.4,8.7,6.1,12.2,10.9v-12.8H1005.6z M969.8,632.2c-5,0-9.6,1.2-13.8,3.7c-4.2,2.5-7.6,5.9-10.1,10.3
		c-2.5,4.4-3.7,9.1-3.7,14.1c0,4.9,1.3,9.6,3.8,14.1c2.5,4.5,5.9,8,10.1,10.5c4.2,2.5,8.8,3.7,13.6,3.7c4.9,0,9.5-1.2,13.9-3.7
		c4.4-2.5,7.8-5.8,10.1-10c2.4-4.2,3.5-9,3.5-14.3c0-8.1-2.7-14.8-8-20.2C984.1,634.9,977.6,632.2,969.8,632.2z"/>
	<path fill="#FFFFFF" d="M1025.8,625.4h9v12.5c3.6-4.8,7.6-8.4,11.9-10.7c4.4-2.4,9.1-3.6,14.2-3.6c5.2,0,9.8,1.3,13.9,4
		c4,2.6,7,6.2,8.9,10.7c1.9,4.5,2.9,11.5,2.9,20.9V695h-9v-33.2c0-8-0.3-13.4-1-16.1c-1-4.6-3-8.1-6-10.4c-2.9-2.3-6.8-3.5-11.5-3.5
		c-5.4,0-10.3,1.8-14.6,5.4c-4.3,3.6-7.1,8-8.5,13.3c-0.9,3.5-1.3,9.8-1.3,18.9V695h-9V625.4z"/>
	<path fill="#FFFFFF" d="M1108.8,596.7c2,0,3.8,0.7,5.2,2.2c1.4,1.5,2.2,3.2,2.2,5.2c0,2-0.7,3.7-2.2,5.2c-1.4,1.5-3.2,2.2-5.2,2.2
		c-2,0-3.7-0.7-5.2-2.2c-1.4-1.5-2.2-3.2-2.2-5.2c0-2,0.7-3.8,2.2-5.2C1105.1,597.4,1106.8,596.7,1108.8,596.7z M1104.4,625.4h9V695
		h-9V625.4z"/>
	<path fill="#FFFFFF" d="M1132.1,625.4h9v12.8c3.5-4.9,7.6-8.5,12.2-10.9c4.6-2.4,9.7-3.6,15.4-3.6c9.9,0,18.3,3.6,25.4,10.7
		c7,7.1,10.6,15.7,10.6,25.7c0,10.2-3.5,18.9-10.5,26.1c-7,7.1-15.4,10.7-25.2,10.7c-5.5,0-10.6-1.2-15.3-3.5
		c-4.6-2.3-8.8-5.7-12.6-10.3v37.4h-9V625.4z M1167.9,632.2c-7.7,0-14.3,2.7-19.6,8.1c-5.3,5.4-7.9,12.1-7.9,20.2
		c0,5.3,1.2,10,3.5,14.3c2.4,4.2,5.7,7.6,10.2,10c4.4,2.5,9.1,3.7,14,3.7c4.8,0,9.3-1.2,13.6-3.7c4.2-2.5,7.6-6,10.1-10.5
		c2.5-4.5,3.8-9.2,3.8-14.1c0-4.9-1.2-9.6-3.7-14.1c-2.5-4.4-5.8-7.9-10.1-10.3C1177.5,633.4,1172.9,632.2,1167.9,632.2z"/>
	<path fill="#FFFFFF" d="M1220.2,625.4h9v32.5c0,7.9,0.4,13.4,1.3,16.4c1.3,4.3,3.7,7.6,7.3,10.1c3.6,2.5,7.9,3.7,12.9,3.7
		s9.2-1.2,12.7-3.6c3.5-2.4,5.9-5.6,7.2-9.5c0.9-2.7,1.3-8.4,1.3-17.1v-32.5h9.2v34.2c0,9.6-1.1,16.8-3.4,21.7
		c-2.2,4.9-5.6,8.7-10.1,11.4c-4.5,2.8-10.1,4.1-16.9,4.1c-6.8,0-12.4-1.4-17-4.1c-4.5-2.8-7.9-6.6-10.2-11.5
		c-2.2-4.9-3.4-12.3-3.4-22.2V625.4z"/>
	<path fill="#FFFFFF" d="M1299.7,598.5h9V695h-9V598.5z"/>
	<path fill="#FFFFFF" d="M1396.7,625.4V695h-8.8v-12c-3.8,4.6-8,8-12.6,10.3c-4.7,2.3-9.8,3.5-15.3,3.5c-9.9,0-18.3-3.6-25.3-10.7
		c-7-7.1-10.5-15.8-10.5-26.1c0-10,3.5-18.6,10.6-25.7c7-7.1,15.5-10.7,25.4-10.7c5.7,0,10.9,1.2,15.5,3.6
		c4.6,2.4,8.7,6.1,12.2,10.9v-12.8H1396.7z M1360.9,632.2c-5,0-9.6,1.2-13.8,3.7c-4.2,2.5-7.6,5.9-10.1,10.3
		c-2.5,4.4-3.7,9.1-3.7,14.1c0,4.9,1.3,9.6,3.8,14.1c2.5,4.5,5.9,8,10.1,10.5c4.2,2.5,8.8,3.7,13.7,3.7c4.9,0,9.5-1.2,13.9-3.7
		c4.4-2.5,7.8-5.8,10.1-10c2.4-4.2,3.5-9,3.5-14.3c0-8.1-2.7-14.8-8-20.2C1375.2,634.9,1368.6,632.2,1360.9,632.2z"/>
	<path fill="#FFFFFF" d="M1484.4,639.8l-7.1,4.4c-6.1-8.1-14.5-12.2-25.1-12.2c-8.5,0-15.5,2.7-21.1,8.2c-5.6,5.5-8.4,12.1-8.4,19.9
		c0,5.1,1.3,9.8,3.9,14.3c2.6,4.5,6.1,7.9,10.6,10.4c4.5,2.5,9.5,3.7,15.1,3.7c10.2,0,18.6-4.1,25.1-12.2l7.1,4.7
		c-3.3,5-7.8,8.9-13.4,11.7c-5.6,2.8-12,4.1-19.2,4.1c-11,0-20.1-3.5-27.4-10.5s-10.9-15.5-10.9-25.5c0-6.7,1.7-13,5.1-18.8
		c3.4-5.8,8.1-10.3,14-13.5c5.9-3.2,12.6-4.9,19.9-4.9c4.6,0,9.1,0.7,13.3,2.1s7.9,3.2,10.9,5.5
		C1479.8,633.5,1482.3,636.3,1484.4,639.8z M1447.9,695h5.6l-1.1,7.6c1-0.1,1.8-0.2,2.4-0.2c2.1,0,3.8,0.6,5.2,2
		c1.4,1.3,2.1,2.9,2.1,4.9c0,2.8-1.3,5.2-3.8,7.2c-2.6,2-6.2,2.9-10.8,2.9c-3.8,0-7.4-0.6-10.7-1.9l1.4-4.4c2.7,0.9,5.3,1.3,7.7,1.3
		c3.2,0,5.4-0.4,6.7-1.2c1.3-0.8,1.9-1.8,1.9-3c0-0.7-0.4-1.4-1.1-1.9c-0.7-0.6-1.7-0.8-2.9-0.8c-1,0-2.5,0.2-4.5,0.6L1447.9,695z"
		/>
	<path fill="#FFFFFF" d="M1571,625.4V695h-8.8v-12c-3.8,4.6-8,8-12.6,10.3c-4.7,2.3-9.8,3.5-15.3,3.5c-9.9,0-18.3-3.6-25.3-10.7
		c-7-7.1-10.5-15.8-10.5-26.1c0-10,3.5-18.6,10.6-25.7c7-7.1,15.5-10.7,25.4-10.7c5.7,0,10.9,1.2,15.5,3.6
		c4.6,2.4,8.7,6.1,12.2,10.9v-12.8H1571z M1535.2,632.2c-5,0-9.6,1.2-13.8,3.7c-4.2,2.5-7.6,5.9-10.1,10.3
		c-2.5,4.4-3.7,9.1-3.7,14.1c0,4.9,1.3,9.6,3.8,14.1c2.5,4.5,5.9,8,10.1,10.5c4.2,2.5,8.8,3.7,13.7,3.7c4.9,0,9.5-1.2,13.9-3.7
		c4.4-2.5,7.8-5.8,10.1-10c2.4-4.2,3.5-9,3.5-14.3c0-8.1-2.7-14.8-8-20.2C1549.5,634.9,1543,632.2,1535.2,632.2z M1555.3,599.4
		l4.5,6.2c-3.1,2.2-5.7,3.8-7.8,4.5c-2.1,0.8-4.3,1.2-6.7,1.2c-3.1,0-6.2-0.8-9.5-2.4c-2.8-1.4-4.5-2.2-5.3-2.4
		c-1-0.3-2.1-0.4-3.3-0.4c-1.5,0-2.9,0.3-4.3,0.8c-1.3,0.5-3.3,1.7-5.9,3.6l-4.2-6.5c3.9-4.2,8.7-6.3,14.4-6.3c2.7,0,6,0.9,9.8,2.6
		c3.6,1.7,6.5,2.6,8.6,2.6C1548,603,1551.3,601.8,1555.3,599.4z"/>
	<path fill="#FFFFFF" d="M1624.2,623.6c10.7,0,19.6,3.9,26.7,11.6c6.4,7.1,9.6,15.5,9.6,25.2c0,9.7-3.4,18.2-10.2,25.5
		c-6.8,7.3-15.5,10.9-26.1,10.9c-10.7,0-19.4-3.6-26.2-10.9c-6.8-7.3-10.2-15.8-10.2-25.5c0-9.6,3.2-18,9.6-25.1
		C1604.5,627.5,1613.4,623.6,1624.2,623.6z M1624.1,632.3c-7.5,0-13.9,2.8-19.2,8.3s-8,12.2-8,20c0,5,1.2,9.7,3.7,14.1
		c2.4,4.4,5.7,7.7,9.9,10.1c4.2,2.4,8.7,3.6,13.7,3.6s9.5-1.2,13.7-3.6c4.2-2.4,7.4-5.7,9.9-10.1c2.4-4.4,3.7-9,3.7-14.1
		c0-7.8-2.7-14.5-8.1-20C1637.9,635.1,1631.5,632.3,1624.1,632.3z"/>
</g>
</svg>
